<?xml version="1.0" encoding="utf-8"?>
<!-- Generator: Adobe Illustrator 16.0.0, SVG Export Plug-In . SVG Version: 6.00 Build 0)  -->
<svg version="1.2" baseProfile="tiny" id="Layer_21"
	 xmlns="http://www.w3.org/2000/svg" xmlns:xlink="http://www.w3.org/1999/xlink" x="0px" y="0px" width="1019.6669922px"
	 height="248.4946289px" viewBox="0 0 1019.6669922 248.4946289" xml:space="preserve">
<g>
	<g>
		<polygon id="S_3_" fill-rule="evenodd" fill="#1B1C20" points="1015.8554688,162.3930664 992.1884766,105.5297852 
			873.9375,105.5297852 864.4648438,82.7104492 884.0498047,35.5297852 1012.0429688,35.5297852 1019.6669922,17.1162109 
			1014.8583984,5.5019531 863.9453125,5.5019531 831.8974609,82.7094727 853.6962891,135.5297852 972.28125,135.5297852 
			983.3818359,162.3930664 960.0419922,218.4438477 815.2001953,218.4438477 807.3730469,237.3481445 811.9775391,248.4711914 
			980.2177734,248.4711914 		"/>
		<polygon id="I_7_" fill-rule="evenodd" fill="#1B1C20" points="739.6005859,35.5297852 691.7866211,35.5297852 
			687.1816406,24.4072266 695.0087891,5.5019531 818.3808594,5.5019531 823.1894531,17.1162109 815.5654297,35.5297852 
			770.65625,35.5297852 721.6435547,218.4438477 769.3662109,218.4438477 774.1748047,230.0571289 766.5507813,248.4711914 
			642.7714844,248.4711914 638.1665039,237.3481445 645.9936523,218.4438477 690.5893555,218.4438477 		"/>
		<path id="B_3_" fill-rule="evenodd" fill="#1B1C20" d="M470.434082,5.5h159.9799805l21.4897461,51.9057617l-32.3256836,78.0800781
			l-10.262207,0.0009766l18.5908203,44.9033203l-28.1958008,68.1044922H405.3242188L470.434082,5.5z M595.4335938,180.3911133
			l-18.5908203-44.9042969h-110.184082l-22.1162109,83.0078125h135.1157227L595.4335938,180.3911133z M619.4306641,57.4057617
			L610.3613281,35.5H493.4501953l-18.7529297,69.9868164h124.8271484L619.4306641,57.4057617z"/>
		<path id="R_3_" fill-rule="evenodd" fill="#1B1C20" d="M393.4462891,5.5019531l21.4887695,51.9038086l-32.3261719,78.0800781
			h-30.4130859l30.2529297,112.9853516h-31.0966797l-30.2529297-112.9853516h-91.4086914l-30.2744141,112.9853516h-31.0546875
			L233.465332,5.5019531H393.4462891z M256.4819336,35.4980469l-18.7539063,69.9907227h124.8266602l19.9072266-48.0830078
			l-9.0703125-21.9077148H256.4819336"/>
		<polygon id="I_6_" fill-rule="evenodd" fill="#1B1C20" points="106.9345703,35.5297852 59.1201172,35.5297852 
			54.5151367,24.4072266 62.3422852,5.5019531 185.7143555,5.5019531 190.5229492,17.1162109 182.8994141,35.5297852 
			137.9897461,35.5297852 88.9775391,218.4438477 136.6992188,218.4438477 141.5078125,230.0571289 133.8842773,248.4711914 
			10.1049805,248.4711914 5.5,237.3481445 13.3271484,218.4438477 57.9228516,218.4438477 		"/>
	</g>
	<g>
		<polygon id="S_2_" fill="#1B1C20" points="1015.8554688,162.3930664 992.1884766,105.5297852 873.9375,105.5297852 
			864.4648438,82.7104492 884.0498047,35.5297852 1012.0429688,35.5297852 1019.6669922,17.1162109 1014.8583984,5.5019531 
			863.9453125,5.5019531 831.8974609,82.7094727 853.6962891,135.5297852 972.28125,135.5297852 983.3818359,162.3930664 
			960.0419922,218.4438477 815.2001953,218.4438477 807.3730469,237.3481445 811.9775391,248.4711914 980.2177734,248.4711914 		"/>
		<polygon id="I_5_" fill="#1B1C20" points="739.6005859,35.5297852 691.7866211,35.5297852 687.1816406,24.4072266 
			695.0087891,5.5019531 818.3808594,5.5019531 823.1894531,17.1162109 815.5654297,35.5297852 770.65625,35.5297852 
			721.6435547,218.4438477 769.3662109,218.4438477 774.1748047,230.0571289 766.5507813,248.4711914 642.7714844,248.4711914 
			638.1665039,237.3481445 645.9936523,218.4438477 690.5893555,218.4438477 		"/>
		<path id="B_2_" fill="#1B1C20" d="M470.434082,5.5h159.9799805l21.4897461,51.9057617l-32.3256836,78.0800781
			l-10.262207,0.0009766l18.5908203,44.9033203l-28.1958008,68.1044922H405.3242188L470.434082,5.5z M595.4335938,180.3911133
			l-18.5908203-44.9042969h-110.184082l-22.1162109,83.0078125h135.1157227L595.4335938,180.3911133z M619.4306641,57.4057617
			L610.3613281,35.5H493.4501953l-18.7529297,69.9868164h124.8271484L619.4306641,57.4057617z"/>
		<path id="R_2_" fill="#1B1C20" d="M393.4462891,5.5019531l21.4887695,51.9038086l-32.3261719,78.0800781h-30.4130859
			l30.2529297,112.9853516h-31.0966797l-30.2529297-112.9853516h-91.4086914l-30.2744141,112.9853516h-31.0546875
			L233.465332,5.5019531H393.4462891z M256.4819336,35.4980469l-18.7539063,69.9907227h124.8266602l19.9072266-48.0830078
			l-9.0703125-21.9077148H256.4819336"/>
		<polygon id="I_4_" fill-rule="evenodd" fill="#1B1C20" points="106.9345703,35.5297852 59.1201172,35.5297852 
			54.5151367,24.4072266 62.3422852,5.5019531 185.7143555,5.5019531 190.5229492,17.1162109 182.8994141,35.5297852 
			137.9897461,35.5297852 88.9775391,218.4438477 136.6992188,218.4438477 141.5078125,230.0571289 133.8842773,248.4711914 
			10.1049805,248.4711914 5.5,237.3481445 13.3271484,218.4438477 57.9228516,218.4438477 		"/>
	</g>
</g>
<g>
	<polygon id="S" fill-rule="evenodd" fill="#DFE3EC" points="1010.3554688,156.8930664 986.6884766,100.0297852 
		868.4375,100.0297852 858.9648438,77.2104492 878.5498047,30.0297852 1006.5429688,30.0297852 1014.1669922,11.6162109 
		1009.3583984,0.0019531 858.4453125,0.0019531 826.3974609,77.2094727 848.1962891,130.0297852 966.78125,130.0297852 
		977.8818359,156.8930664 954.5419922,212.9438477 809.7001953,212.9438477 801.8730469,231.8481445 806.4775391,242.9711914 
		974.7177734,242.9711914 	"/>
	<polygon id="I_1_" fill-rule="evenodd" fill="#DFE3EC" points="734.1005859,30.0297852 686.2866211,30.0297852 
		681.6816406,18.9072266 689.5087891,0.0019531 812.8808594,0.0019531 817.6894531,11.6162109 810.0654297,30.0297852 
		765.15625,30.0297852 716.1435547,212.9438477 763.8662109,212.9438477 768.6748047,224.5571289 761.0507813,242.9711914 
		637.2714844,242.9711914 632.6665039,231.8481445 640.4936523,212.9438477 685.0893555,212.9438477 	"/>
	<path id="B" fill-rule="evenodd" fill="#DFE3EC" d="M464.934082,0h159.9799805l21.4897461,51.9057617l-32.3256836,78.0800781
		l-10.262207,0.0009766l18.5908203,44.9033203l-28.1958008,68.1044922H399.8242188L464.934082,0z M589.9335938,174.8911133
		l-18.5908203-44.9042969h-110.184082l-22.1162109,83.0078125h135.1157227L589.9335938,174.8911133z M613.9306641,51.9057617
		L604.8613281,30H487.9501953l-18.7529297,69.9868164h124.8271484L613.9306641,51.9057617z"/>
	<path id="R" fill-rule="evenodd" fill="#DFE3EC" d="M387.9462891,0.0019531l21.4887695,51.9038086l-32.3261719,78.0800781
		h-30.4130859l30.2529297,112.9853516h-31.0966797l-30.2529297-112.9853516h-91.4086914l-30.2744141,112.9853516h-31.0546875
		L227.965332,0.0019531H387.9462891z M250.9819336,29.9980469l-18.7539063,69.9907227h124.8266602l19.9072266-48.0830078
		l-9.0703125-21.9077148H250.9819336"/>
	<polygon id="I" fill-rule="evenodd" fill="#DFE3EC" points="101.4345703,30.0297852 53.6201172,30.0297852 49.0151367,18.9072266 
		56.8422852,0.0019531 180.2143555,0.0019531 185.0229492,11.6162109 177.3994141,30.0297852 132.4897461,30.0297852 
		83.4775391,212.9438477 131.1992188,212.9438477 136.0078125,224.5571289 128.3842773,242.9711914 4.6049805,242.9711914 
		0,231.8481445 7.8271484,212.9438477 52.4228516,212.9438477 	"/>
</g>
</svg>
