<?xml version="1.0" encoding="utf-8"?>
<!-- Generator: Adobe Illustrator 16.0.0, SVG Export Plug-In . SVG Version: 6.00 Build 0)  -->
<svg version="1.2" baseProfile="tiny" xmlns="http://www.w3.org/2000/svg" xmlns:xlink="http://www.w3.org/1999/xlink" x="0px"
	 y="0px" width="64px" height="64px" viewBox="0 0 64 64" xml:space="preserve">
<g id="Ellipse_2_1_">
	<g id="Ellipse_2">
		<g>
			<path d="M50.5,63.5V25c0-6.3413086-5.1591797-11.5-11.5-11.5H19.5v37.8505859L18.7685547,50.96875
				C14.2851563,48.6298828,11.5,44.0429688,11.5,39V0.5H39c13.5097656,0,24.5,10.9907227,24.5,24.5v38.5H50.5z"/>
		</g>
		<g>
			<path fill="#FFFFFF" d="M39,1c13.2548828,0,24,10.7451172,24,24v38H51V52v-6.21875V25c0-6.6269531-5.3730469-12-12-12H19
				v25.2646484V39v8v3.5253906C14.8427734,48.3564453,12,44.0136719,12,39V13V1h7H39 M39,0H19h-7h-1v1v12v26
				c0,5.2304688,2.8881836,9.9863281,7.5375977,12.4121094L20,52.1748047v-1.6494141V47v-8v-0.7353516V14h19
				c6.0654297,0,11,4.9345703,11,11v20.78125V52v11v1h1h12h1v-1V25C64,11.2148438,52.7851563,0,39,0L39,0z"/>
		</g>
	</g>
</g>
<g id="Ellipse_1_1_">
	<g id="Ellipse_1">
		<g>
			<path d="M25,63.5C11.4907227,63.5,0.5,52.5097656,0.5,39V0.5h11V39c0,7.4443359,6.0561523,13.5,13.5,13.5h25.5v11H25z"/>
		</g>
		<g>
			<path fill="#FFFFFF" d="M11,1v12v6.512207V39c0,7.7324219,6.2680664,14,14,14h19.4882813H50v10H25
				C11.7451172,63,1,52.2548828,1,39V1H11 M12,0h-1H1H0v1v38c0,13.7851563,11.2148438,25,25,25h25h1v-1V53v-1h-1h-5.5117188H25
				c-7.1679688,0-13-5.8320313-13-13V19.512207V13V1V0L12,0z"/>
		</g>
	</g>
</g>
<g id="_x32__1_">
	<g id="_x32_">
		<g>
			<path d="M26.4638672,44.5625v-3.4873047l6.7314453-7.6123047c0.953125-1.1230469,1.6386719-2.0839844,2.0322266-2.8496094
				c0.3769531-0.7290039,0.5673828-1.3984375,0.5673828-1.9902344c0-0.7548828-0.1826172-1.3564453-0.5429688-1.7890625
				c-0.3427734-0.4116211-0.8642578-0.6113281-1.59375-0.6113281c-0.7685547,0-1.3427734,0.265625-1.7539063,0.8115234
				c-0.4389648,0.5820313-0.6611328,1.3432617-0.6611328,2.2626953v0.5h-5.1894531v-0.5
				c-0.0522461-2.1010742,0.6274414-3.8432617,2.0195313-5.2519531c1.390625-1.4057617,3.2700195-2.1181641,5.5849609-2.1181641
				c2.3066406,0,4.1357422,0.6088867,5.4365234,1.809082c1.3125,1.2128906,1.9775391,2.8520508,1.9775391,4.8725586
				c0,1.3696289-0.3691406,2.6386719-1.0966797,3.7714844c-0.6923828,1.0742188-1.8886719,2.5683594-3.5566406,4.4414063
				L33.5371094,40.28125h8.2382813v4.28125H26.4638672z"/>
		</g>
		<g>
			<path fill="#FFFFFF" d="M33.6582031,22.4267578c2.1875,0,3.8867188,0.5595703,5.0976563,1.6767578
				c1.2109375,1.1191406,1.8164063,2.6201172,1.8164063,4.5048828c0,1.2792969-0.3398438,2.4462891-1.0175781,3.5009766
				c-0.6796875,1.0546875-1.8486328,2.5146484-3.5087891,4.3798828l-3.515625,4.21875l0.0292969,0.0732422h8.7158203v3.28125
				H26.9638672v-2.7978516l6.6064453-7.4707031c0.9863281-1.1621094,1.6875-2.1455078,2.1015625-2.9521484
				c0.4160156-0.8046875,0.6230469-1.5449219,0.6230469-2.21875c0-0.8789063-0.2197266-1.5820313-0.6591797-2.109375
				s-1.0986328-0.7910156-1.9775391-0.7910156c-0.9277344,0-1.6455078,0.3369141-2.1533203,1.0107422
				s-0.7617188,1.5283203-0.7617188,2.5634766h-4.1894531v-0.0878906c-0.0488281-1.8945313,0.5761719-3.4980469,1.875-4.8125
				C29.7275391,23.0839844,31.4707031,22.4267578,33.6582031,22.4267578 M33.6582031,21.4267578
				c-2.4536133,0-4.4521484,0.7626953-5.9404297,2.2661133c-1.4916992,1.5102539-2.2197266,3.3745117-2.1635742,5.5419922
				l-0.0004883,0.0620117v1h1h4.1894531h1v-1c0-0.8198242,0.1831055-1.4614258,0.5605469-1.9614258
				c0.3193359-0.4238281,0.7373047-0.612793,1.3544922-0.612793c0.8496094,0,1.1201172,0.324707,1.2089844,0.4311523
				c0.2880859,0.3452148,0.4277344,0.8256836,0.4277344,1.4692383c0,0.5112305-0.171875,1.1030273-0.5117188,1.7597656
				c-0.3759766,0.7333984-1.0410156,1.6630859-1.9755859,2.7636719l-6.5927734,7.4560547l-0.2509766,0.2832031v0.3789063V44.0625v1
				h1h14.3115234h1v-1v-3.28125v-1h-1h-6.6708984l2.2099609-2.6513672c1.6865234-1.8945313,2.8652344-3.3681641,3.5810547-4.4785156
				c0.78125-1.2158203,1.1767578-2.5756836,1.1767578-4.0429688c0-2.1655273-0.71875-3.9282227-2.1376953-5.2392578
				C38.0371094,22.0800781,36.09375,21.4267578,33.6582031,21.4267578L33.6582031,21.4267578z"/>
		</g>
	</g>
</g>
</svg>
