<?xml version="1.0" encoding="utf-8"?>
<!-- Generator: Adobe Illustrator 16.0.0, SVG Export Plug-In . SVG Version: 6.00 Build 0)  -->
<svg version="1.2" baseProfile="tiny" xmlns="http://www.w3.org/2000/svg" xmlns:xlink="http://www.w3.org/1999/xlink" x="0px"
	 y="0px" width="1024px" height="1024px" viewBox="0 0 1024 1024" xml:space="preserve">
<g id="Ellipse_2_1_">
	<g id="Ellipse_2">
		<g>
			<path fill="#FFFFFF" d="M808,1016V400c0-101.4580078-82.5419922-184-184-184H312v605.7460938l-11.6977539-6.0976563
				C228.5644531,778.2568359,184,704.8212891,184,624V8h440c52.9160156,0,104.2539063,10.3652344,152.5869141,30.8085938
				c46.6796875,19.7436523,88.6015625,48.0073242,124.5996094,84.0053711s64.2607422,77.9189453,84.0048828,124.5991211
				C1005.6347656,295.7460938,1016,347.0834961,1016,400v616H808z"/>
		</g>
		<g>
			<path d="M624,16c212.078125,0,384,171.921875,384,384v608H816V832v-99.3769531V400c0-106.03125-85.96875-192-192-192H304
				v404.328125V624v128v56.5546875C237.4472656,773.8652344,192,704.2441406,192,624V208V16h112H624 M624,0H304H192h-16v16v192v416
				c0,41.7382813,11.5634766,82.46875,33.440918,117.7861328c21.2602539,34.3212891,51.4013672,62.3164063,87.1635742,80.9570313
				L320,834.9375v-26.3828125V752V624v-11.671875V224h304c97.046875,0,176,78.953125,176,176v332.6230469V832v176v16h16h192h16v-16
				V400c0-53.9926758-10.578125-106.3789063-31.4404297-155.703125
				c-20.1474609-47.6337891-48.9863281-90.409668-85.7167969-127.1396484
				c-36.7294922-36.7304688-79.5058594-65.5693359-127.1396484-85.7167969C730.3789063,10.578125,677.9931641,0,624,0L624,0z"/>
		</g>
	</g>
</g>
<g id="Ellipse_1_1_">
	<g id="Ellipse_1_3_">
		<g>
			<path fill="#FFFFFF" d="M400,1016c-52.9165039,0-104.2539063-10.3652344-152.5869141-30.8085938
				c-46.6801758-19.7441406-88.6010742-48.0068359-124.5991211-84.0048828s-64.2617188-77.9199219-84.0053711-124.5996094
				C18.3652344,728.2539063,8,676.9160156,8,624V8h176v616c0,119.1025391,96.8969727,216,216,216h408v176H400z"/>
		</g>
		<g>
			<path d="M176,16v192v104.0751953V624c0,123.71875,100.2890625,224,224,224h311.9248047H800v160H400
				c-212.078125,0-384-171.921875-384-384V16H176 M192,0h-16H16H0v16v608c0,53.9931641,10.578125,106.3789063,31.4404297,155.703125
				c20.1474609,47.6337891,48.9863281,90.4101563,85.7167969,127.1396484
				c36.7299805,36.7304688,79.5058594,65.5693359,127.1396484,85.7167969C293.6210938,1013.421875,346.0073242,1024,400,1024h400h16
				v-16V848v-16h-16h-88.0751953H400c-114.6918945,0-208-93.3085938-208-208V312.0751953V208V16V0L192,0z"/>
		</g>
	</g>
</g>
<g id="_x32__1_">
	<g id="_x32_">
		<g>
			<path fill="#FFFFFF" d="M423.421875,713v-55.7958984l107.6552734-121.7382813
				c15.3251953-18.0615234,26.2773438-33.4194336,32.5556641-45.6503906
				c6.0322266-11.668457,9.0859375-22.3764648,9.0859375-31.8466797c0-12.074707-2.9248047-21.7070313-8.6923828-28.628418
				c-5.4833984-6.5795898-13.8222656-9.777832-25.4951172-9.777832c-12.2988281,0-21.4785156,4.2480469-28.0644531,12.9868164
				c-7.0175781,9.3120117-10.5761719,21.4916992-10.5761719,36.2006836v8h-83.03125v-9.3037109
				c-0.8105469-32.3774414,10.0595703-60.2080078,32.3095703-82.7255859
				c22.2563477-22.4907227,52.3208008-33.8925781,89.3623047-33.8925781c36.8994141,0,66.1669922,9.7397461,86.9873047,28.9482422
				c20.9951172,19.4033203,31.6376953,45.6308594,31.6376953,77.9580078c0,21.9155273-5.9052734,42.2167969-17.5507813,60.3408203
				c-11.0683594,17.1738281-30.1796875,41.0507813-56.8085938,70.9746094L536.5878906,644.5H668.40625V713H423.421875z"/>
		</g>
		<g>
			<path d="M538.53125,358.828125c35,0,62.1875,8.953125,81.5625,26.828125c19.375,17.90625,29.0625,41.921875,29.0625,72.078125
				c0,20.46875-5.4375,39.140625-16.28125,56.015625c-10.875,16.875-29.578125,40.234375-56.140625,70.078125l-56.25,67.5
				l0.46875,1.171875H660.40625V705H431.421875v-44.765625L537.125,540.703125c15.78125-18.59375,27-34.328125,33.625-47.234375
				c6.65625-12.875,9.96875-24.71875,9.96875-35.5c0-14.0625-3.515625-25.3125-10.546875-33.75
				S552.59375,411.5625,538.53125,411.5625c-14.84375,0-26.328125,5.390625-34.453125,16.171875
				s-12.1875,24.453125-12.1875,41.015625h-67.03125v-1.40625c-0.78125-30.3125,9.21875-55.96875,30-77
				C475.640625,369.34375,503.53125,358.828125,538.53125,358.828125 M538.53125,342.828125
				c-39.2563477,0-71.234375,12.2001953-95.0444336,36.2612305c-23.8208008,24.1069336-35.4672852,53.8652344-34.6274414,88.4536133
				V468.75v16h16h67.03125h16v-16c0-13.1147461,2.9326172-23.3808594,8.9648438-31.3862305
				c5.109375-6.7783203,11.7939453-9.8012695,21.6757813-9.8012695c13.5996094,0,17.9267578,5.1928711,19.3496094,6.8994141
				c4.6005859,5.5214844,6.8378906,13.2109375,6.8378906,23.5068359c0,8.1791992-2.7529297,17.6508789-8.1816406,28.1518555
				c-6.0126953,11.7138672-16.6054688,26.5385742-31.5048828,44.1040039L419.4360352,649.6347656l-4.0141602,4.5400391v6.0595703
				V705v16h16H660.40625h16v-16v-52.5v-16h-16H553.6679688l35.1904297-42.2275391
				c27.2363281-30.6103516,46.0332031-54.1142578,57.4658203-71.8554688
				c12.5-19.4521484,18.8320313-41.2084961,18.8320313-64.6826172c0-34.6494141-11.5078125-62.8535156-34.203125-83.8286133
				C608.5976563,353.28125,577.5058594,342.828125,538.53125,342.828125L538.53125,342.828125z"/>
		</g>
	</g>
</g>
</svg>
