<?xml version="1.0" encoding="utf-8"?>
<!-- Generator: Adobe Illustrator 16.0.0, SVG Export Plug-In . SVG Version: 6.00 Build 0)  -->
<!DOCTYPE svg PUBLIC "-//W3C//DTD SVG 1.1//EN" "http://www.w3.org/Graphics/SVG/1.1/DTD/svg11.dtd">
<svg version="1.1" xmlns="http://www.w3.org/2000/svg" xmlns:xlink="http://www.w3.org/1999/xlink" x="0px" y="0px" width="1024px"
	 height="1024px" viewBox="0 0 1024 1024" enable-background="new 0 0 1024 1024" xml:space="preserve">
<g id="Ellipse_2_1_" enable-background="new    ">
	<g id="Ellipse_2">
		<g>
			<path d="M808,1016V400c0-101.4580078-82.5419922-184-184-184H312v605.7460938l-11.6977539-6.0976563
				C228.5644531,778.2568359,184,704.8212891,184,624V8h440c52.9160156,0,104.2539063,10.3657227,152.5869141,30.8085938
				C823.2666016,58.5527344,865.1875,86.815918,901.1855469,122.8144531
				c35.9980469,35.9980469,64.2617188,77.9189453,84.0058594,124.5991211C1005.6347656,295.746582,1016,347.0839844,1016,400v616
				H808z"/>
		</g>
		<g>
			<path fill="#FFFFFF" d="M624,16c212.0771484,0,384,171.9228516,384,384v608H816V832v-99.3779297V400
				c0-106.0390625-85.9609375-192-192-192H304v404.3271484V624v128v56.5546875C237.4472656,773.8652344,192,704.2441406,192,624V208
				V16h112H624 M624,0H304H192h-16v16v192v416c0,41.7382813,11.5634766,82.46875,33.440918,117.7861328
				c21.2602539,34.3212891,51.4013672,62.3164063,87.1635742,80.9570313L320,834.9375v-26.3828125V752V624v-11.6728516V224h304
				c97.046875,0,176,78.953125,176,176v332.6220703V832v176v16h16h192h16v-16V400
				c0-53.9926758-10.578125-106.3789063-31.4404297-155.7026367
				c-20.1474609-47.6337891-48.9863281-90.409668-85.7167969-127.1401367
				c-36.7304688-36.7299805-79.5058594-65.5693359-127.1396484-85.7167969C730.3789063,10.578125,677.9921875,0,624,0L624,0z"/>
		</g>
	</g>
</g>
<g id="Ellipse_1_1_" enable-background="new    ">
	<g id="Ellipse_1">
		<g>
			<path d="M400,1016c-52.9160156,0-104.253418-10.3652344-152.5864258-30.8085938
				c-46.6801758-19.7441406-88.6010742-48.0078125-124.5991211-84.0058594
				C86.815918,865.1875,58.5527344,823.2666016,38.8085938,776.5869141C18.3657227,728.2539063,8,676.9160156,8,624V8h176v616
				c0,119.1025391,96.8969727,216,216,216h408v176H400z"/>
		</g>
		<g>
			<path fill="#FFFFFF" d="M176,16v192v104.0756836V624c0,123.7119141,100.2880859,224,224,224h311.9248047H800v160H400
				c-212.0771484,0-384-171.9228516-384-384V16H176 M192,0h-16H16H0v16v608
				c0,53.9921875,10.578125,106.3789063,31.4404297,155.703125c20.1474609,47.6337891,48.9868164,90.4091797,85.7167969,127.1396484
				c36.7304688,36.7304688,79.5063477,65.5693359,127.1401367,85.7167969C293.6210938,1013.421875,346.0073242,1024,400,1024h400h16
				v-16V848v-16h-16h-88.0751953H400c-114.6918945,0-208-93.3085938-208-208V312.0756836V208V16V0L192,0z"/>
		</g>
	</g>
</g>
<g id="_x32__1_" enable-background="new    ">
	<g id="_x32_">
		<g>
			<path d="M423.421875,713v-55.7958984l107.65625-121.7402344c15.2822266-18.0107422,26.2392578-33.3701172,32.5683594-45.6518555
				C569.6660156,478.125,572.71875,467.4111328,572.71875,457.96875c0-12.074707-2.9248047-21.7070313-8.6923828-28.628418
				c-5.4833984-6.5795898-13.8222656-9.777832-25.4951172-9.777832c-12.2998047,0-21.4794922,4.2475586-28.0634766,12.9858398
				c-7.019043,9.3120117-10.5771484,21.4916992-10.5771484,36.2016602v8h-80.3286133l-2.6689453-8.0073242l-0.0307617-1.1923828
				c-0.8388672-32.4296875,10.0317383-60.2954102,32.3085938-82.8237305
				c22.2416992-22.4931641,52.3071289-33.8984375,89.3603516-33.8984375c36.9101563,0,66.1777344,9.7431641,86.9892578,28.9580078
				c20.9921875,19.3881836,31.6357422,45.6132813,31.6357422,77.9482422c0,21.9316406-5.9082031,42.2348633-17.5615234,60.3447266
				c-11.0273438,17.1328125-30.1367188,41.0107422-56.796875,70.9697266L536.5878906,644.5H668.40625V713H423.421875z"/>
		</g>
		<g>
			<path fill="#FFFFFF" d="M538.53125,358.828125c34.9990234,0,62.1865234,8.9462891,81.5625,26.8359375
				c19.3730469,17.8925781,29.0625,41.9160156,29.0625,72.0703125c0,20.4707031-5.4306641,39.140625-16.2890625,56.015625
				c-10.8613281,16.875-29.5712891,40.2353516-56.1328125,70.078125l-56.25,67.5l0.46875,1.171875H660.40625V705H431.421875
				v-44.765625L537.125,540.703125c15.7802734-18.5927734,26.9902344-34.3359375,33.6328125-47.2265625
				C577.3974609,480.5859375,580.71875,468.75,580.71875,457.96875c0-14.0625-3.515625-25.3125-10.546875-33.75
				S552.59375,411.5625,538.53125,411.5625c-14.8457031,0-26.3300781,5.390625-34.453125,16.171875
				c-8.1259766,10.78125-12.1875,24.4550781-12.1875,41.015625h-66.5625l-0.46875-1.40625
				c-0.7836914-30.3115234,9.2177734-55.9755859,30-76.9921875
				C475.6381836,369.3378906,503.5292969,358.828125,538.53125,358.828125 M538.53125,342.828125
				c-39.2695313,0-71.2485352,12.2041016-95.0488281,36.2734375
				c-23.8676758,24.1367188-35.5146484,53.9648438-34.6176758,88.6557617l0.0615234,2.3837891l0.7543945,2.262207l0.46875,1.40625
				L413.7958984,484.75h11.5322266h66.5625h16v-16c0-13.1157227,2.9321289-23.3818359,8.9648438-31.3852539
				c5.1083984-6.7797852,11.7929688-9.8022461,21.6757813-9.8022461c13.5996094,0,17.9267578,5.1928711,19.3496094,6.8994141
				c4.6005859,5.5214844,6.8378906,13.2109375,6.8378906,23.5068359c0,8.1552734-2.7539063,17.6367188-8.1845703,28.1816406
				c-6.0429688,11.7255859-16.6416016,26.5546875-31.5039063,44.0761719L419.4360352,649.6347656l-4.0141602,4.5400391v6.0595703
				V705v16h16H660.40625h16v-16v-52.5v-16h-16H553.6679688l35.1904297-42.2275391
				c27.2695313-30.6484375,46.0654297-54.1552734,57.4628906-71.8632813
				c12.4980469-19.4233398,18.8349609-41.1826172,18.8349609-64.6748047c0-34.6582031-11.5087891-62.8608398-34.2070313-83.8242188
				C608.6103516,353.2851563,577.5175781,342.828125,538.53125,342.828125L538.53125,342.828125z"/>
		</g>
	</g>
</g>
</svg>
