<?xml version="1.0" encoding="utf-8"?>
<svg version="1.2" baseProfile="tiny" xmlns="http://www.w3.org/2000/svg" xmlns:xlink="http://www.w3.org/1999/xlink" x="0px"
	 y="0px" width="128px" height="128px" viewBox="0 0 128 128" xml:space="preserve">
<g id="Layer_1">
	<line display="none" fill="none" x1="31" y1="106" x2="31" y2="26" style='stroke: #2676d5; stroke-width: 14px; stroke-dashoffset: 0px;' stroke-dasharray='80'/>
	<path display="none" fill="none" d="M24,14h54c19.882,0,36,16.118,36,36v76" style='stroke: #2676d5; stroke-width: 24px; stroke-dashoffset: 0px;'/>
	<path display="none" fill="none" d="M100,116H50c-20.987,0-38-17.013-38-38V2" style='stroke: #2676d5; stroke-width: 20px; stroke-dashoffset: 0px'/>
</g>
<g id="Layer_2">
	<path display="inline" fill="none" d="M39.001,102.666C29.571,98.454,23,88.994,23,78V1h55c27.062,0,49,21.938,49,49v77h-26V50 c0-12.703-10.298-23-23-23H39L39.001,102.666z" style='stroke: #FFF; stroke-width: 2px;'/>
	<path display="inline" fill="none" d="M1,1v77c0,27.062,21.938,49,49,49h51v-22H50c-14.912,0-27-12.088-27-27V1H1z" style='stroke: #FFF; stroke-width: 2px;'/>
</g>
</svg>
