<?xml version="1.0" encoding="utf-8"?>
<!-- Generator: Adobe Illustrator 16.0.0, SVG Export Plug-In . SVG Version: 6.00 Build 0)  -->
<svg version="1.2" baseProfile="tiny" id="Layer_1" xmlns="http://www.w3.org/2000/svg" xmlns:xlink="http://www.w3.org/1999/xlink"
	 x="0px" y="0px" width="496.328125px" height="125.75px" viewBox="0 0 496.328125 125.75" xml:space="preserve">
<g>
	<g>
		<path fill="#FFFFFF" stroke="#000000" stroke-width="3" stroke-miterlimit="10" d="M203.7958984,62.2373047h-30.2675781
			c-0.7807617,0-1.4140625,0.6337891-1.4140625,1.4150391v14.7978516c0,0.78125,0.6333008,1.4169922,1.4140625,1.4169922h11.8076172
			v18.3847656c0,0-2.6513672,0.9042969-9.9804688,0.9042969c-8.6479492,0-20.7280273-3.1601563-20.7280273-29.7236328
			c0-26.5693359,12.5791016-30.0654297,24.3881836-30.0654297c10.2226563,0,14.6269531,1.7998047,17.4287109,2.6679688
			c0.8808594,0.2695313,1.6948242-0.6074219,1.6948242-1.3886719l3.3764648-14.2978516
			c0-0.3662109-0.1235352-0.8056641-0.5400391-1.1044922c-1.1386719-0.8125-8.0810547-4.6972656-25.6201172-4.6972656
			c-20.206543,0-40.9326172,8.5966797-40.9326172,49.921875c0,41.3261719,23.7299805,47.484375,43.7265625,47.484375
			c16.5571289,0,26.6015625-7.0751953,26.6015625-7.0751953c0.4135742-0.2285156,0.4584961-0.8076172,0.4584961-1.0722656
			V63.6523438C205.2094727,62.8710938,204.5766602,62.2373047,203.7958984,62.2373047z"/>
		<path fill="#FFFFFF" stroke="#000000" stroke-width="3" stroke-miterlimit="10" d="M359.7792969,25.4990234
			c0-0.7880859-0.6240234-1.4228516-1.4052734-1.4228516h-17.0419922c-0.7783203,0-1.4111328,0.6347656-1.4111328,1.4228516
			c0,0.0029297,0.0048828,32.9335938,0.0048828,32.9335938h-26.5644531V25.4990234
			c0-0.7880859-0.6269531-1.4228516-1.40625-1.4228516h-17.0410156c-0.7763672,0-1.4082031,0.6347656-1.4082031,1.4228516
			v89.1767578c0,0.7871094,0.6318359,1.4267578,1.4082031,1.4267578h17.0410156c0.7792969,0,1.40625-0.6396484,1.40625-1.4267578
			V76.53125h26.5644531c0,0-0.046875,38.1416016-0.046875,38.1445313c0,0.7871094,0.6318359,1.4267578,1.4111328,1.4267578
			h17.0830078c0.7802734,0,1.4042969-0.6396484,1.40625-1.4267578V25.4990234z"/>
		<g>
			<path fill="#FFFFFF" stroke="#000000" stroke-width="3" stroke-miterlimit="10" d="M235.9550781,37.2001953
				c0-6.1357422-4.9199219-11.0947266-10.9902344-11.0947266c-6.0634766,0-10.9868164,4.9589844-10.9868164,11.0947266
				c0,6.1308594,4.9233398,11.1035156,10.9868164,11.1035156C231.0351563,48.3037109,235.9550781,43.3310547,235.9550781,37.2001953
				z"/>
			<path fill="#FFFFFF" stroke="#000000" stroke-width="3" stroke-miterlimit="10" d="M234.7363281,95.8642578
				c0-2.2851563,0-41.1640625,0-41.1640625c0-0.7822266-0.6303711-1.4208984-1.4101563-1.4208984h-16.9882813
				c-0.7792969,0-1.4765625,0.8037109-1.4765625,1.5849609c0,0,0,49.5341797,0,58.9765625
				c0,1.7333984,1.0800781,2.2490234,2.4775391,2.2490234c0,0,7.2509766,0,15.3061523,0
				c1.6796875,0,2.0913086-0.8251953,2.0913086-2.2763672C234.7363281,110.6523438,234.7363281,98.2685547,234.7363281,95.8642578z"
				/>
		</g>
		<path fill="#FFFFFF" stroke="#000000" stroke-width="3" stroke-miterlimit="10" d="M424.546875,53.4130859h-16.9111328
			c-0.7763672,0-1.4072266,0.6396484-1.4072266,1.4267578v43.7255859c0,0-4.296875,3.1435547-10.3945313,3.1435547
			s-7.7158203-2.7666016-7.7158203-8.7373047c0-5.9785156,0-38.1318359,0-38.1318359
			c0-0.7871094-0.6298828-1.4267578-1.40625-1.4267578h-17.1640625c-0.7744141,0-1.4091797,0.6396484-1.4091797,1.4267578
			c0,0,0,23.2851563,0,41.0185547c0,17.7353516,9.8837891,22.0742188,23.4814453,22.0742188
			c11.1552734,0,20.1494141-6.1630859,20.1494141-6.1630859s0.4287109,3.2480469,0.6220703,3.6328125
			c0.1933594,0.3837891,0.6982422,0.7724609,1.2441406,0.7724609l10.9189453-0.0488281
			c0.7744141,0,1.4091797-0.6396484,1.4091797-1.4238281l-0.0058594-59.8623047
			C425.9580078,54.0527344,425.3261719,53.4130859,424.546875,53.4130859z"/>
		<path fill="#FFFFFF" stroke="#000000" stroke-width="3" stroke-miterlimit="10" d="M470.7685547,51.4101563
			c-9.6044922,0-16.1376953,4.2851563-16.1376953,4.2851563V25.4990234c0-0.7880859-0.6298828-1.4228516-1.40625-1.4228516
			h-17.0908203c-0.7773438,0-1.4082031,0.6347656-1.4082031,1.4228516v89.1767578
			c0,0.7871094,0.6308594,1.4267578,1.4101563,1.4267578c0.0019531,0,11.8535156,0,11.8574219,0
			c0.5341797,0,0.9384766-0.2753906,1.2373047-0.7568359c0.2949219-0.4794922,0.7197266-4.1123047,0.7197266-4.1123047
			s6.9882813,6.6230469,20.2177734,6.6230469c15.53125,0,24.4384766-7.8779297,24.4384766-35.3662109
			S480.3808594,51.4101563,470.7685547,51.4101563z M464.0986328,101.6552734
			c-5.8662109-0.1787109-9.8447266-2.8408203-9.8447266-2.8408203V70.5742188c0,0,3.9248047-2.40625,8.7412109-2.8359375
			c6.0898438-0.5458984,11.9580078,1.2939453,11.9580078,15.8212891
			C474.953125,98.8789063,472.3046875,101.9023438,464.0986328,101.6552734z"/>
		<path fill="#FFFFFF" stroke="#000000" stroke-width="3" stroke-miterlimit="10" d="M283.7167969,53.2714844h-12.7841797
			c0,0-0.0185547-16.8847656-0.0185547-16.8886719c0-0.6396484-0.3300781-0.9589844-1.0693359-0.9589844h-17.4204102
			c-0.6772461,0-1.0405273,0.2978516-1.0405273,0.9492188v17.4521484c0,0-8.730957,2.1074219-9.3212891,2.2773438
			c-0.5869141,0.1708984-1.0200195,0.7128906-1.0200195,1.359375v10.9677734c0,0.7880859,0.6298828,1.4248047,1.4091797,1.4248047
			h8.9321289c0,0,0,11.4697266,0,26.3837891c0,19.5966797,13.7460938,21.5214844,23.0214844,21.5214844
			c4.2382813,0,9.3076172-1.3613281,10.1455078-1.6699219c0.5058594-0.1865234,0.8007813-0.7109375,0.8007813-1.2792969
			l0.0136719-12.0644531c0-0.7861328-0.6640625-1.4238281-1.4130859-1.4238281
			c-0.7451172,0-2.6513672,0.3037109-4.6123047,0.3037109c-6.2792969,0-8.4072266-2.9199219-8.4072266-6.6992188
			c0-3.7763672-0.0009766-25.0722656-0.0009766-25.0722656h12.7851563c0.7792969,0,1.4101563-0.6367188,1.4101563-1.4248047
			V54.6923828C285.1269531,53.9052734,284.4960938,53.2714844,283.7167969,53.2714844z"/>
	</g>
	<path fill-rule="evenodd" fill="#FFFFFF" stroke="#000000" stroke-width="3" stroke-miterlimit="10" d="M64.1054688,2.0039063
		c-34.5327148,0-62.5356445,28.0068359-62.5356445,62.5449219c0,27.6318359,17.9174805,51.0712891,42.7709961,59.3427734
		c3.1269531,0.5693359,4.2685547-1.3574219,4.2685547-3.0146484c0-1.484375-0.0537109-5.4208984-0.0839844-10.640625
		c-17.3964844,3.7792969-21.0668945-8.3828125-21.0668945-8.3828125c-2.8442383-7.2216797-6.9438477-9.1484375-6.9438477-9.1484375
		c-5.6782227-3.8769531,0.4291992-3.8017578,0.4291992-3.8017578c6.2763672,0.4423828,9.5795898,6.4492188,9.5795898,6.4492188
		c5.5791016,9.5527344,14.6367188,6.7929688,18.2001953,5.1962891c0.5683594-4.0419922,2.1845703-6.8017578,3.9707031-8.3613281
		c-13.8867188-1.5820313-28.4863281-6.9433594-28.4863281-30.9082031c0-6.8310547,2.4365234-12.4101563,6.4370117-16.7822266
		c-0.6430664-1.5820313-2.7890625-7.9404297,0.6132813-16.5488281c0,0,5.2504883-1.6875,17.1977539,6.4111328
		c4.9882813-1.3867188,10.3388672-2.0849609,15.6572266-2.1064453c5.3105469,0.0214844,10.6601563,0.7197266,15.65625,2.1064453
		c11.9394531-8.0986328,17.1806641-6.4111328,17.1806641-6.4111328c3.4121094,8.6083984,1.265625,14.9667969,0.6230469,16.5488281
		c4.0078125,4.3720703,6.4277344,9.9511719,6.4277344,16.7822266c0,24.0244141-14.6220703,29.3115234-28.5537109,30.8564453
		c2.2451172,1.9345703,4.2451172,5.7509766,4.2451172,11.5849609c0,8.3603516-0.0761719,15.1015625-0.0761719,17.15625
		c0,1.671875,1.1259766,3.6142578,4.2998047,3.0068359c24.8300781-8.2851563,42.7324219-31.7109375,42.7324219-59.3349609
		C126.6484375,30.0107422,98.6455078,2.0039063,64.1054688,2.0039063z"/>
</g>
</svg>
