<?xml version="1.0" encoding="utf-8"?>
<!-- Generator: Adobe Illustrator 16.0.0, SVG Export Plug-In . SVG Version: 6.00 Build 0)  -->
<svg version="1.2" baseProfile="tiny" id="logo_1_" xmlns="http://www.w3.org/2000/svg" xmlns:xlink="http://www.w3.org/1999/xlink"
	 x="0px" y="0px" width="1024px" height="1024px" viewBox="0 0 1024 1024" xml:space="preserve">
<g id="logo">
	<g>
		<path fill-rule="evenodd" fill="#FFFFFF" d="M400,1016c-52.9160156,0-104.2539063-10.3652344-152.5869141-30.8085938
			c-46.6796875-19.7441406-88.6010742-48.0078125-124.5991211-84.0058594s-64.2612305-77.9189453-84.0053711-124.5996094
			C18.3652344,728.2529297,8,676.9150391,8,623.9990234V8h616c52.9160156,0,104.2539063,10.3652344,152.5869141,30.8085938
			C823.2666016,58.5522461,865.1875,86.815918,901.1855469,122.8139648s64.2617188,77.9189453,84.0058594,124.5991211
			C1005.6347656,295.7460938,1016,347.0834961,1016,400v616H400z M311.9960938,821.2529297
			C338.8896484,833.2988281,368.6757813,840,400,840h408V400c0-101.4584961-82.5419922-184.0009766-184-184.0009766v-0.0288086
			c-0.2949219,0.019043-0.6005859,0.0288086-0.9179688,0.0288086L311.9995117,216L311.9960938,821.2529297z M423.421875,712.9990234
			v-55.7949219l107.6572266-121.7412109c15.2773438-18.0048828,26.234375-33.3647461,32.5673828-45.6513672
			c6.0195313-11.6889648,9.0722656-22.4033203,9.0722656-31.84375c0-12.0742188-2.9248047-21.7060547-8.6923828-28.6274414
			c-5.4833984-6.5800781-13.8222656-9.7788086-25.4951172-9.7788086c-12.3007813,0-21.4804688,4.2480469-28.0634766,12.9868164
			c-7.019043,9.3110352-10.5771484,21.4907227-10.5771484,36.2016602v8h-83.0317383v-9.3066406
			c-0.8110352-32.3842773,10.0595703-60.2138672,32.3115234-82.7167969
			c22.2416992-22.4931641,52.3071289-33.8984375,89.3608398-33.8984375c36.9091797,0,66.1767578,9.7426758,86.9892578,28.9580078
			c20.9921875,19.3891602,31.6357422,45.6137695,31.6357422,77.9472656c0,21.9306641-5.9082031,42.2338867-17.5615234,60.3457031
			c-11.0302734,17.1367188-30.1416016,41.015625-56.7988281,70.9716797l-46.2070313,55.4482422H668.40625v68.5H423.421875z"/>
	</g>
	<g>
		<path d="M624,16c212.0771484,0,384,171.921875,384,384v608H816V400c0-106.0390625-85.9619141-192.0009766-192-192.0009766
			C624,208,303.9995117,208,303.9995117,208l-0.003418,600.5673828
			C237.4414063,773.8789063,191.9990234,704.2460938,191.9995117,624V16H624 M175.9995117,16v608
			c0,123.7119141,100.2885742,224,224.0004883,224h400v160H400c-212.0776367,0-384-171.9228516-384-384.0009766C16,624,16,16,16,16
			H175.9995117 M538.53125,358.828125c34.9980469,0,62.1855469,8.9462891,81.5625,26.8359375
			c19.3720703,17.8925781,29.0625,41.9160156,29.0625,72.0693359c0,20.4716797-5.4316406,39.1416016-16.2890625,56.0166016
			c-10.8623047,16.875-29.5712891,40.2353516-56.1328125,70.078125l-56.25,67.5l0.46875,1.1708984H660.40625v52.5H431.421875
			V660.234375L537.125,540.7021484c15.7802734-18.5917969,26.9892578-34.3359375,33.6328125-47.2255859
			c6.6386719-12.8916016,9.9609375-24.7265625,9.9609375-35.5087891c0-14.0615234-3.515625-25.3115234-10.546875-33.7490234
			c-7.03125-8.4384766-17.578125-12.6572266-31.640625-12.6572266c-14.8466797,0-26.3300781,5.390625-34.453125,16.1728516
			c-8.1264648,10.7802734-12.1875,24.4550781-12.1875,41.015625h-67.0317383v-1.40625
			c-0.7832031-30.3115234,9.2177734-55.9755859,30-76.9921875C475.6376953,369.3378906,503.5283203,358.828125,538.53125,358.828125
			 M624,0H191.9995117h-16H16H0v16v607.9990234c0,53.9931641,10.578125,106.3789063,31.4404297,155.703125
			c20.1474609,47.6337891,48.9863281,90.4101563,85.7167969,127.140625
			c36.7299805,36.7294922,79.5058594,65.5693359,127.1396484,85.7167969C293.6210938,1013.421875,346.0073242,1024,400,1024h400h16
			h192h16v-16V400c0-53.9926758-10.578125-106.3789063-31.4404297-155.703125
			c-20.1474609-47.6337891-48.9863281-90.409668-85.7167969-127.1396484
			c-36.7304688-36.7304688-79.5058594-65.5693359-127.1396484-85.7167969C730.3789063,10.578125,677.9921875,0,624,0L624,0z
			 M319.9995117,224H464l110-0.0004883h36.25l10.15625-0.0004883h2.6767578h0.6865234
			c0.0771484,0,0.1542969-0.0004883,0.2304688-0.0014648v0.0014648c97.046875,0,176,78.9536133,176,176.0009766v432H400
			c-28.3369141,0-55.3623047-5.6933594-80.0039063-16v-7.4326172L319.9995117,224L319.9995117,224z M538.53125,342.828125
			c-39.2700195,0-71.2490234,12.2041016-95.0498047,36.2734375c-23.8183594,24.0874023-35.4667969,53.8408203-34.6225586,88.4428711
			V468.75v16h16h67.0317383h16v-16c0-13.1166992,2.9321289-23.3828125,8.9638672-31.3842773
			c5.109375-6.7817383,11.7939453-9.8041992,21.6767578-9.8041992c13.5996094,0,17.9267578,5.1928711,19.3486328,6.8994141
			c4.6025391,5.5224609,6.8388672,13.2114258,6.8388672,23.5068359c0,8.1538086-2.7539063,17.6357422-8.1855469,28.1835938
			c-6.0449219,11.7275391-16.6425781,26.5556641-31.4980469,44.0693359L419.4360352,649.6347656l-4.0141602,4.5400391v6.0595703
			v44.7646484v16h16H660.40625h16v-16v-52.5v-16h-16H553.6689453l35.1914063-42.2294922
			c27.2626953-30.640625,46.0605469-54.1484375,57.4609375-71.859375
			c12.4990234-19.4262695,18.8349609-41.1855469,18.8349609-64.6767578c0-34.65625-11.5087891-62.8583984-34.2060547-83.8227539
			C608.609375,353.2851563,577.5166016,342.828125,538.53125,342.828125L538.53125,342.828125z"/>
	</g>
</g>
</svg>
